<svg width="40" height="41" viewBox="0 0 40 41" fill="none" xmlns="http://www.w3.org/2000/svg">
<path fill-rule="evenodd" clip-rule="evenodd" d="M5.78345 7.58337H7.45011L7.53345 7.60004C9.84371 7.64485 11.8623 9.17228 12.5334 11.3834L12.8668 12.5334H30.2501C31.7852 12.5404 33.2428 13.2084 34.2501 14.3667C35.2546 15.5323 35.6991 17.079 35.4668 18.6L34.4668 25.5C34.1337 28.1449 31.899 30.1376 29.2334 30.1667H19.4334C17.0923 30.158 15.0305 28.6235 14.3501 26.3834L10.1334 12.1667C9.81055 10.947 8.71179 10.0939 7.45011 10.0834H5.78345C5.09309 10.0834 4.53345 9.52373 4.53345 8.83337C4.53345 8.14302 5.09309 7.58337 5.78345 7.58337ZM16.7501 25.5834C17.1039 26.77 18.1952 27.5834 19.4334 27.5834H29.2334C30.6129 27.5684 31.7811 26.5621 32.0001 25.2L33.0001 18.2834C33.1363 17.4783 32.9143 16.6538 32.3922 16.026C31.87 15.3982 31.0999 15.0296 30.2834 15.0167H13.6168L16.7501 25.5834Z" fill="#DBDFE6"/>
<path d="M19.0501 32.1667C18.1296 32.1667 17.3834 32.9129 17.3834 33.8334C17.3834 34.7538 18.1296 35.5 19.0501 35.5C19.9706 35.5 20.7168 34.7538 20.7168 33.8334C20.7168 32.9129 19.9706 32.1667 19.0501 32.1667Z" fill="#DBDFE6"/>
<path d="M29.0501 32.1667C28.1296 32.1667 27.3834 32.9129 27.3834 33.8334C27.3834 34.7538 28.1296 35.5 29.0501 35.5C29.9706 35.5 30.7168 34.7538 30.7168 33.8334C30.7168 32.9129 29.9706 32.1667 29.0501 32.1667Z" fill="#DBDFE6"/>
</svg>
