<svg width="18" height="22" viewBox="0 0 18 22" fill="none" xmlns="http://www.w3.org/2000/svg">
<path d="M3.28002 14.9399L6.69002 11.5299C6.9855 11.2372 6.98773 10.7604 6.69502 10.4649C6.40231 10.1695 5.9255 10.1672 5.63002 10.4599L1.00002 15.1499C0.931927 15.2229 0.877706 15.3076 0.840024 15.3999C0.770041 15.5835 0.770041 15.7864 0.840024 15.9699C0.877706 16.0623 0.931927 16.147 1.00002 16.2199L5.69002 20.9099C5.83287 21.0471 6.02203 21.1256 6.22002 21.1299C6.41887 21.1298 6.60951 21.0506 6.75002 20.9099C6.89297 20.7707 6.97359 20.5795 6.97359 20.3799C6.97359 20.1804 6.89297 19.9892 6.75002 19.8499L3.31002 16.4399H12.31C12.7242 16.4399 13.06 16.1042 13.06 15.6899C13.06 15.2757 12.7242 14.9399 12.31 14.9399H3.28002Z" fill="#FCFAFA"/>
<path d="M17.19 5.99995C17.1403 5.91588 17.076 5.84138 17 5.77995L12.34 1.08995C12.0472 0.797492 11.5728 0.797492 11.28 1.08995C11.1371 1.22923 11.0565 1.42036 11.0565 1.61995C11.0565 1.81953 11.1371 2.01066 11.28 2.14995L14.69 5.56995H5.69002C5.27581 5.56995 4.94002 5.90573 4.94002 6.31995C4.94002 6.73416 5.27581 7.06995 5.69002 7.06995H14.69L11.28 10.4799C11.1371 10.6192 11.0565 10.8104 11.0565 11.0099C11.0565 11.2095 11.1371 11.4007 11.28 11.5399C11.4205 11.6806 11.6112 11.7598 11.81 11.7599C12.008 11.7556 12.1972 11.6771 12.34 11.5399L17 6.84995C17.0681 6.77704 17.1223 6.69232 17.16 6.59995C17.2476 6.41144 17.2584 6.19625 17.19 5.99995Z" fill="#FCFAFA"/>
</svg>
