<svg width="40" height="41" viewBox="0 0 40 41" fill="none" xmlns="http://www.w3.org/2000/svg">
<path d="M9.16675 9.66663H30.8334C32.8417 9.66663 33.3334 9.16957 33.3334 8.45695C33.3334 7.74432 32.8417 7.16663 30.8334 7.16663H9.16675C7.15844 7.16663 6.66675 7.74432 6.66675 8.45695C6.66675 9.16957 7.15844 9.66663 9.16675 9.66663Z" fill="#DBDFE6"/>
<path d="M30.8334 19.2096H9.16675C7.15844 19.2096 6.66675 19.7873 6.66675 20.5C6.66675 21.2126 7.15844 21.7903 9.16675 21.7903H30.8334C32.8417 21.7903 33.3334 21.2126 33.3334 20.5C33.3334 19.7873 32.8417 19.2096 30.8334 19.2096Z" fill="#DBDFE6"/>
<path d="M30.8334 31.2526H9.16675C7.15844 31.2526 6.66675 31.8303 6.66675 32.543C6.66675 33.2556 7.15844 33.8333 9.16675 33.8333H30.8334C32.8417 33.8333 33.3334 33.2556 33.3334 32.543C33.3334 31.8303 32.8417 31.2526 30.8334 31.2526Z" fill="#DBDFE6"/>
</svg>
